<?xml version="1.0" standalone="no"?><!DOCTYPE svg PUBLIC "-//W3C//DTD SVG 1.1//EN" "http://www.w3.org/Graphics/SVG/1.1/DTD/svg11.dtd"><svg t="1662520568708" class="icon" viewBox="0 0 1024 1024" version="1.1" xmlns="http://www.w3.org/2000/svg" p-id="1635" xmlns:xlink="http://www.w3.org/1999/xlink" width="200" height="200"><path d="M298.48 244c-27.61 0-50 22.39-50 50v585h585c27.61 0 50-22.39 50-50V244h-585z" fill="#E9F1FF" p-id="1636"></path><path d="M829.38 904.32h-635c-41.35 0-75-33.65-75-75v-635c0-41.35 33.65-75 75-75h635c41.35 0 75 33.65 75 75v635c0 41.36-33.64 75-75 75z m-635-735c-13.79 0-25 11.21-25 25v635c0 13.79 11.21 25 25 25h635c13.79 0 25-11.21 25-25v-635c0-13.79-11.21-25-25-25h-635z" fill="#2C5CCB" p-id="1637"></path><path d="M252.91 241.01m-29.31 0a29.31 29.31 0 1 0 58.62 0 29.31 29.31 0 1 0-58.62 0Z" fill="#2C5CCB" p-id="1638"></path><path d="M339.31 241.01m-29.31 0a29.31 29.31 0 1 0 58.62 0 29.31 29.31 0 1 0-58.62 0Z" fill="#2C5CCB" p-id="1639"></path><path d="M425.7 241.01m-29.31 0a29.31 29.31 0 1 0 58.62 0 29.31 29.31 0 1 0-58.62 0Z" fill="#2C5CCB" p-id="1640"></path><path d="M144.91 312.45h732.52v50H144.91z" fill="#2C5CCB" p-id="1641"></path><path d="M304.98 636.59c-6.1 0-12.2-2.22-17.01-6.68l-56.5-52.46c-10.12-9.4-10.7-25.21-1.31-35.33 9.4-10.12 25.21-10.7 35.33-1.31l38.84 36.07 98.68-98.68c9.76-9.76 25.59-9.76 35.36 0 9.76 9.76 9.76 25.59 0 35.36L322.66 629.27a24.933 24.933 0 0 1-17.68 7.32zM417 743.32H252.18c-13.81 0-25-11.19-25-25s11.19-25 25-25H417c13.81 0 25 11.19 25 25s-11.19 25-25 25zM775.28 485.84h-227.7c-13.81 0-25-11.19-25-25s11.19-25 25-25h227.7c13.81 0 25 11.19 25 25s-11.19 25-25 25zM775.28 614.58h-227.7c-13.81 0-25-11.19-25-25s11.19-25 25-25h227.7c13.81 0 25 11.19 25 25s-11.19 25-25 25zM775.28 743.32h-227.7c-13.81 0-25-11.19-25-25s11.19-25 25-25h227.7c13.81 0 25 11.19 25 25s-11.19 25-25 25z" fill="#2C5CCB" p-id="1642"></path></svg>