<?xml version="1.0" standalone="no"?><!DOCTYPE svg PUBLIC "-//W3C//DTD SVG 1.1//EN" "http://www.w3.org/Graphics/SVG/1.1/DTD/svg11.dtd"><svg t="1662520797669" class="icon" viewBox="0 0 1024 1024" version="1.1" xmlns="http://www.w3.org/2000/svg" p-id="4802" xmlns:xlink="http://www.w3.org/1999/xlink" width="200" height="200"><path d="M510 64c210.8 0 382 171.2 382 382 0 152-88.8 283.2-217.6 344.8l32 118.8c0.8 2.8 0.8 5.6 0.8 8h50c23.6 0 43.2 18 44.8 41.6v3.2h-584c0-24.8 20-44.8 44.8-44.8h50c-0.4-2.8 0-5.6 0.8-8l32-118.8C216.8 729.2 128 598 128 446 128 235.2 299.2 64 510 64z m122.8 744c-39.6 13.2-80.8 20-122.8 20-41.6 0-83.2-6.8-122.8-20l-29.6 110h304l-28.8-110zM510 108.8C324 108.8 172.8 260 172.8 446s150.8 337.2 337.2 337.2 337.2-150.8 337.2-337.2-151.2-337.2-337.2-337.2z m0 112.4c124 0 224.8 100.8 224.8 224.8s-100.8 224.8-224.8 224.8-224.8-100.8-224.8-224.8 100.8-224.8 224.8-224.8z m0 45.2c-64.4 0-123.6 34.4-155.6 90a180 180 0 0 0 0 179.6c32 55.6 91.6 90 155.6 90 99.2 0 179.6-80.4 179.6-179.6s-80.4-180-179.6-180z m0 67.2c62 0 112.4 50.4 112.4 112.4 0 62-50.4 112.4-112.4 112.4S397.6 508 397.6 446c0-62 50.4-112.4 112.4-112.4z m0 44.8c-24 0-46.4 12.8-58.4 33.6s-12 46.4 0 67.6c12 20.8 34.4 33.6 58.4 33.6 37.2 0 67.6-30 67.6-67.6 0-36.8-30.4-67.2-67.6-67.2z m22.4-224.4c12.4 0 22.4 10 22.4 22.4 0 12.4-10 22.4-22.4 22.4h-44.8c-12.4 0-22.4-10-22.4-22.4 0-12.4 10-22.4 22.4-22.4h44.8z m0 0" fill="#3F51B5" p-id="4803"></path><path d="M812.4 972.8H208v-10c0-30.4 24.8-54.8 54.8-54.8h40.8v-0.8l29.6-110.8c-131.2-66.4-215.6-202.8-215.6-350 0-216 176-392 392-392s392 176 392 392c0 147.2-84.4 284-215.6 350l29.6 110.8v0.8h40.8c28.4 0 52.8 22.4 54.8 50.8v3.6l1.2 10.4z m-583.2-20h561.2c-4.4-14.4-18-24.8-33.6-24.8h-61.2l1.2-11.2c0-1.6 0-3.2-0.4-4.4l-34-126.8 7.6-3.6c128.8-61.6 211.6-193.2 211.6-336 0-205.2-166.8-372-372-372s-372 166.8-372 372c0 142.4 83.2 274.4 211.6 336l7.6 3.6-34 126.8c-0.4 1.6-0.4 3.2-0.4 4.4l1.6 11.2H262.8c-15.6 0-29.2 10.4-33.6 24.8z m446-24.8H344.8l35.6-132.8 10 3.6c38.4 12.8 78.4 19.6 119.2 19.6h0.8c40.4 0 80.8-6.4 119.2-19.6l10-3.6 35.6 132.8z m-304.4-20h278l-23.2-87.2c-37.2 11.6-76 17.2-115.2 17.2h-0.8c-39.2 0-78-6-115.2-17.2L370.8 908z m139.2-114.8c-191.2 0-347.2-155.6-347.2-347.2 0-191.2 155.6-347.2 347.2-347.2 191.2 0 347.2 155.6 347.2 347.2 0 191.2-156 347.2-347.2 347.2z m0-674.4c-180.4 0-327.2 146.8-327.2 327.2s146.8 327.2 327.2 327.2 327.2-146.8 327.2-327.2-146.8-327.2-327.2-327.2z m0 562c-129.6 0-234.8-105.2-234.8-234.8s105.2-234.8 234.8-234.8 234.8 105.2 234.8 234.8-105.2 234.8-234.8 234.8z m0-449.6c-118.4 0-214.8 96.4-214.8 214.8s96.4 214.8 214.8 214.8 214.8-96.4 214.8-214.8-96.4-214.8-214.8-214.8z m0 404.4c-67.6 0-130.4-36.4-164.4-94.8-33.6-58.4-33.6-131.2 0-189.6 33.6-58.4 96.8-94.8 164.4-94.8 104.8 0 189.6 85.2 189.6 189.6 0 104.8-84.8 189.6-189.6 189.6z m0-359.2c-60.4 0-116.8 32.4-147.2 84.8-30.4 52.4-30.4 117.6 0 169.6 30.4 52.4 86.4 84.8 147.2 84.8 93.6 0 169.6-76 169.6-169.6s-76-169.6-169.6-169.6z m0 292c-67.6 0-122.4-54.8-122.4-122.4s54.8-122.4 122.4-122.4 122.4 54.8 122.4 122.4-54.8 122.4-122.4 122.4z m0-224.8c-56.4 0-102.4 46-102.4 102.4s46 102.4 102.4 102.4 102.4-46 102.4-102.4-46-102.4-102.4-102.4z m0 180c-27.6 0-53.2-14.8-67.2-38.8-13.6-24-13.6-53.6 0-77.6 13.6-24 39.6-38.8 67.2-38.8 42.8 0 77.6 34.8 77.6 77.6s-34.8 77.6-77.6 77.6z m0-135.2c-20.4 0-39.6 11.2-49.6 28.8-10.4 17.6-10.4 39.6 0 57.6 10.4 17.6 29.2 28.8 49.6 28.8 31.6 0 57.6-25.6 57.6-57.6s-26-57.6-57.6-57.6z m22.4-188.4h-44.8c-18 0-32.4-12.4-32.4-28s14.4-28 32.4-28h44.8c18 0 32.4 12.4 32.4 28s-14.4 28-32.4 28z m-44.8-36c-6.8 0-12.4 5.6-12.4 12.4s5.6 12.4 12.4 12.4h44.8c6.8 0 12.4-5.6 12.4-12.4s-5.6-12.4-12.4-12.4h-44.8z" fill="#3F51B5" p-id="4804"></path></svg>