<?xml version="1.0" standalone="no"?><!DOCTYPE svg PUBLIC "-//W3C//DTD SVG 1.1//EN" "http://www.w3.org/Graphics/SVG/1.1/DTD/svg11.dtd"><svg t="1662794119323" class="icon" viewBox="0 0 1024 1024" version="1.1" xmlns="http://www.w3.org/2000/svg" p-id="2697" xmlns:xlink="http://www.w3.org/1999/xlink" width="200" height="200"><path d="M435.4 707.4L314.6 828.2c-3.7 3.7-5.7 8.5-5.7 13.7 0 5.2 2 10 5.7 13.7 3.7 3.7 8.5 5.7 13.7 5.7 5.2 0 10-2 13.7-5.7l120.9-120.9c7.5-7.5 7.5-19.8 0-27.4-7.6-7.5-19.9-7.5-27.5 0.1z" fill="#4E30DC" p-id="2698"></path><path d="M328.3 866.7c-6.6 0-12.9-2.6-17.6-7.3-4.7-4.7-7.3-10.9-7.3-17.6 0-6.6 2.6-12.9 7.3-17.6l120.9-120.9c9.7-9.7 25.4-9.7 35.1 0 9.7 9.7 9.7 25.4 0 35.1L345.8 859.5c-4.7 4.7-10.9 7.2-17.5 7.2z m111-155.5L318.5 832.1c-2.6 2.6-4.1 6.1-4.1 9.8 0 3.7 1.4 7.2 4.1 9.8 2.6 2.6 6.1 4.1 9.8 4.1 3.7 0 7.2-1.4 9.8-4.1L459 730.8c5.4-5.4 5.4-14.2 0-19.6-5.5-5.3-14.3-5.3-19.7 0zM711.4 828.2L590.6 707.4c-7.5-7.5-19.8-7.5-27.4 0-7.5 7.5-7.5 19.8 0 27.4l120.9 120.9c3.7 3.7 8.5 5.7 13.7 5.7s10-2 13.7-5.7c3.7-3.7 5.7-8.5 5.7-13.7-0.1-5.3-2.1-10.1-5.8-13.8z" fill="#4E30DC" p-id="2699"></path><path d="M697.7 866.7c-6.6 0-12.9-2.6-17.6-7.3L559.3 738.6c-9.7-9.7-9.7-25.4 0-35.1 9.7-9.7 25.4-9.7 35.1 0l120.9 120.9c4.7 4.7 7.3 10.9 7.3 17.6 0 6.6-2.6 12.9-7.3 17.6-4.7 4.6-10.9 7.1-17.6 7.1zM576.9 707.2c-3.5 0-7.1 1.3-9.8 4-5.4 5.4-5.4 14.2 0 19.6L688 851.7c2.6 2.6 6.1 4.1 9.8 4.1s7.2-1.4 9.8-4.1c2.6-2.6 4.1-6.1 4.1-9.8s-1.4-7.2-4.1-9.8L586.7 711.2c-2.7-2.7-6.3-4-9.8-4z" fill="#4E30DC" p-id="2700"></path><path d="M900.3 203.2H125.8c-13.7 0-24.8 11.1-24.8 24.8s11.1 24.8 24.8 24.8h17.7v440c0 27.1 22 49.1 49.1 49.1h640.8c27.1 0 49.1-22 49.1-49.1v-440h17.7c13.7 0 24.8-11.1 24.8-24.8s-11-24.8-24.7-24.8z m-67.5 49.7v439.5H193.2V252.9h639.6z" fill="#4E30DC" p-id="2701"></path><path d="M741.3 327.2l-0.2 0.2-166.3 172-181.6-106.1-0.4-0.2c-9.2-4.4-20.3-2.5-27.5 4.7l-0.2 0.2-112.9 133.4c-4.4 4.5-6.8 10.5-6.8 16.8 0.1 6.4 2.6 12.4 7.2 16.9 4.5 4.4 10.5 6.8 16.8 6.8 6.5 0 12.5-2.5 17.1-7.1l0.2-0.2 100.8-120.7 180 105.4 0.4 0.2c8.4 4 18.5 2.8 25.7-3.1l0.2-0.2L772 363.8c4.8-4.1 7.8-9.7 8.4-16 0.6-6.4-1.4-12.6-5.5-17.5-8.4-10-23.5-11.4-33.6-3.1z" fill="#FF4E7D" p-id="2702"></path></svg>