<?xml version="1.0" standalone="no"?><!DOCTYPE svg PUBLIC "-//W3C//DTD SVG 1.1//EN" "http://www.w3.org/Graphics/SVG/1.1/DTD/svg11.dtd"><svg t="1662514237521" class="icon" viewBox="0 0 1024 1024" version="1.1" xmlns="http://www.w3.org/2000/svg" p-id="3761" xmlns:xlink="http://www.w3.org/1999/xlink" width="200" height="200"><path d="M814.08 224.64H197.76c-37.12 0-67.2 30.08-67.2 67.2v435.84c0 37.12 30.08 67.2 67.2 67.2h616.32c37.12 0 67.2-30.08 67.2-67.2V291.84c0-37.12-30.08-67.2-67.2-67.2z" fill="#EEF6FF" p-id="3762"></path><path d="M814.08 807.04H197.76c-44.16 0-80-35.84-80-80v-435.2c0-44.16 35.84-80 80-80h616.32c44.16 0 80 35.84 80 80v435.84c0 43.52-35.84 79.36-80 79.36z m-616.32-569.6c-30.08 0-54.4 24.32-54.4 54.4v435.84c0 30.08 24.32 54.4 54.4 54.4h616.32c30.08 0 54.4-24.32 54.4-54.4V291.84c0-30.08-24.32-54.4-54.4-54.4H197.76z" fill="#708DB7" p-id="3763"></path><path d="M193.92 691.84V312.32c0-14.08 11.52-25.6 25.6-25.6h575.36c14.08 0 25.6 11.52 25.6 25.6v379.52" fill="#CFE5FF" p-id="3764"></path><path d="M832.64 691.84h-25.6V312.32c0-7.04-5.76-12.8-12.8-12.8H219.52c-7.04 0-12.8 5.76-12.8 12.8v379.52h-25.6V312.32c0-21.12 17.28-38.4 38.4-38.4h575.36c21.12 0 38.4 17.28 38.4 38.4v379.52z" fill="#708DB7" p-id="3765"></path><path d="M134.4 691.2h748.8" fill="#CFE5FF" p-id="3766"></path><path d="M134.4 678.4h748.8v25.6H134.4z" fill="#708DB7" p-id="3767"></path><path d="M513.28 736m-16 0a16 16 0 1 0 32 0 16 16 0 1 0-32 0Z" fill="#CFE5FF" p-id="3768"></path><path d="M614.4 883.2H416v-76.8h25.6v51.2h147.2v-57.6h25.6z" fill="#708DB7" p-id="3769"></path><path d="M678.4 883.2H345.6c-7.04 0-12.8-5.76-12.8-12.8s5.76-12.8 12.8-12.8h332.8c7.04 0 12.8 5.76 12.8 12.8s-5.76 12.8-12.8 12.8z" fill="#708DB7" p-id="3770"></path><path d="M704.64 257.92c0-19.2-10.88-36.48-26.24-45.44h-3.84c2.56-6.4 3.84-12.8 3.84-20.48 0-28.8-23.68-52.48-52.48-52.48h-1.92c-5.76-22.4-26.24-39.68-50.56-39.68-28.8 0-52.48 23.68-52.48 52.48 0-28.8-23.68-52.48-52.48-52.48-24.32 0-44.8 16.64-50.56 39.68H416c-28.8 0-52.48 23.68-52.48 52.48 0 7.04 1.28 14.08 3.84 19.84h-3.84c-16 8.96-26.24 26.24-26.24 45.44 0 21.12 12.8 39.68 30.72 48-2.56 5.12-4.48 11.52-4.48 17.92 0 17.28 10.88 32 26.24 37.12h1.92c-1.28 5.12-1.92 10.24-1.92 15.36 0 36.48 29.44 65.92 65.92 65.92 36.48 0 65.92-29.44 65.92-65.92 0 36.48 29.44 65.92 65.92 65.92s65.92-29.44 65.92-65.92c0-5.12-0.64-10.24-1.92-15.36h1.92c15.36-5.12 26.24-19.84 26.24-37.12 0-6.4-1.92-12.8-4.48-17.92 16.64-7.68 29.44-26.24 29.44-47.36z m-131.2-52.48v1.92-1.92z" fill="#FFD8C5" p-id="3771"></path><path d="M357.76 195.84c0 3.84 0.64 7.68 1.28 11.52-16.64 11.52-26.24 30.72-26.24 51.2s10.24 39.68 26.24 51.2c-0.64 3.84-1.28 7.68-1.28 11.52 0 17.92 10.24 34.56 25.6 43.52 0 1.92-0.64 4.48-0.64 6.4 0 41.6 33.92 75.52 75.52 75.52 26.24 0 49.28-13.44 62.72-33.92 13.44 20.48 36.48 33.92 62.72 33.92 41.6 0 75.52-33.92 75.52-75.52 0-1.92 0-4.48-0.64-6.4 15.36-8.96 25.6-25.6 25.6-43.52 0-3.84-0.64-7.68-1.28-11.52 16.64-11.52 26.24-30.72 26.24-51.2s-10.24-39.04-26.24-51.2c0.64-3.84 1.28-7.68 1.28-11.52 0-32-24.32-58.24-55.04-62.08-9.6-22.4-32-38.4-57.6-38.4-20.48 0-39.04 10.24-49.92 25.6-11.52-15.36-29.44-25.6-49.92-25.6-26.24 0-48 16-57.6 38.4-32.64 3.84-56.32 30.08-56.32 62.08z m213.12-75.52c20.48 0 37.76 16.64 37.76 37.76s-16.64 37.76-37.12 37.76v24.96c33.92 0 60.8-26.88 62.08-60.16 14.72 5.12 25.6 19.2 25.6 35.2 0 20.48-16.64 37.12-37.12 37.12v24.96c21.12 0 39.68-10.24 51.2-26.24 7.04 7.04 11.52 16.64 11.52 26.88 0 14.72-8.96 28.16-22.4 33.92l-12.16 5.76 5.76 11.52c1.92 3.84 3.2 7.68 3.2 11.52 0 7.04-3.2 12.8-7.68 17.28C639.36 313.6 613.76 294.4 584.32 294.4v25.6c27.52 0 49.92 24.32 49.92 51.84s-22.4 49.92-49.92 49.92-49.92-22.4-49.92-49.92V158.08c-1.28-20.48 16-37.76 36.48-37.76zM408.32 160c1.28 33.28 30.08 60.8 64 60.8l0.64-24.96c-20.48 0-39.68-17.28-39.68-37.76s16.64-37.76 37.76-37.76 37.76 16.64 37.76 37.76V371.2c0 27.52-22.4 49.92-49.92 49.92s-49.92-22.4-49.92-49.92 24.96-51.2 52.48-51.2v-25.6c-30.08 0-58.24 18.56-70.4 43.52-4.48-4.48-7.68-10.88-7.68-17.28 0-3.84 1.28-7.68 3.2-11.52l5.76-11.52-12.16-5.76c-13.44-6.4-22.4-19.84-22.4-33.92 0-10.24 4.48-19.84 11.52-26.88 11.52 16 26.88 26.88 48 26.88l0.64-24.96c-20.48 0-35.2-16.64-35.2-37.12 0-16.64 10.88-30.72 25.6-35.84z" fill="#708DB7" p-id="3772"></path><path d="M472.96 208m-12.8 0a12.8 12.8 0 1 0 25.6 0 12.8 12.8 0 1 0-25.6 0Z" fill="#708DB7" p-id="3773"></path><path d="M417.28 245.12m-12.8 0a12.8 12.8 0 1 0 25.6 0 12.8 12.8 0 1 0-25.6 0Z" fill="#708DB7" p-id="3774"></path><path d="M460.8 307.2m-12.8 0a12.8 12.8 0 1 0 25.6 0 12.8 12.8 0 1 0-25.6 0Z" fill="#708DB7" p-id="3775"></path><path d="M572.16 208m-12.8 0a12.8 12.8 0 1 0 25.6 0 12.8 12.8 0 1 0-25.6 0Z" fill="#708DB7" p-id="3776"></path><path d="M621.44 245.12m-12.8 0a12.8 12.8 0 1 0 25.6 0 12.8 12.8 0 1 0-25.6 0Z" fill="#708DB7" p-id="3777"></path><path d="M584.32 307.2m-12.8 0a12.8 12.8 0 1 0 25.6 0 12.8 12.8 0 1 0-25.6 0Z" fill="#708DB7" p-id="3778"></path><path d="M678.4 524.8H563.2V435.2h25.6v64h89.6z" fill="#708DB7" p-id="3779"></path><path d="M577.28 517.76m-17.92 0a17.92 17.92 0 1 0 35.84 0 17.92 17.92 0 1 0-35.84 0Z" fill="#FFF27D" p-id="3780"></path><path d="M577.28 548.48c-16.64 0-30.72-13.44-30.72-30.72 0-16.64 13.44-30.72 30.72-30.72 16.64 0 30.72 13.44 30.72 30.72-0.64 16.64-14.08 30.72-30.72 30.72z m0-35.84c-2.56 0-5.12 1.92-5.12 5.12 0 2.56 1.92 5.12 5.12 5.12s5.12-1.92 5.12-5.12c-0.64-2.56-2.56-5.12-5.12-5.12z" fill="#708DB7" p-id="3781"></path><path d="M697.6 512.64m-27.52 0a27.52 27.52 0 1 0 55.04 0 27.52 27.52 0 1 0-55.04 0Z" fill="#FFFFFF" p-id="3782"></path><path d="M697.6 552.96c-22.4 0-40.32-17.92-40.32-40.32s17.92-40.32 40.32-40.32 40.32 17.92 40.32 40.32-17.92 40.32-40.32 40.32z m0-54.4c-8.32 0-14.72 6.4-14.72 14.72 0 8.32 6.4 14.72 14.72 14.72s14.72-6.4 14.72-14.72c0-8.32-6.4-14.72-14.72-14.72z" fill="#708DB7" p-id="3783"></path><path d="M684.8 544h25.6v51.2h-25.6z" fill="#708DB7" p-id="3784"></path><path d="M697.6 609.28m-17.92 0a17.92 17.92 0 1 0 35.84 0 17.92 17.92 0 1 0-35.84 0Z" fill="#FFFFFF" p-id="3785"></path><path d="M697.6 640c-16.64 0-30.72-13.44-30.72-30.72 0-16.64 13.44-30.72 30.72-30.72 16.64 0 30.72 13.44 30.72 30.72 0 17.28-13.44 30.72-30.72 30.72z m0-35.2c-2.56 0-5.12 1.92-5.12 5.12 0 2.56 1.92 5.12 5.12 5.12s5.12-1.92 5.12-5.12-2.56-5.12-5.12-5.12zM448 428.8h25.6v64h-25.6z" fill="#708DB7" p-id="3786"></path><path d="M461.44 512.64m-23.68 0a23.68 23.68 0 1 0 47.36 0 23.68 23.68 0 1 0-47.36 0Z" fill="#FFFFFF" p-id="3787"></path><path d="M461.44 549.12c-19.84 0-36.48-16-36.48-36.48s16-36.48 36.48-36.48 36.48 16 36.48 36.48-16.64 36.48-36.48 36.48z m0-47.36c-5.76 0-10.88 5.12-10.88 10.88s5.12 10.88 10.88 10.88 10.88-5.12 10.88-10.88-5.12-10.88-10.88-10.88z" fill="#708DB7" p-id="3788"></path><path d="M294.4 377.6h108.8v25.6H294.4z" fill="#708DB7" p-id="3789"></path><path d="M275.84 384.64m-23.68 0a23.68 23.68 0 1 0 47.36 0 23.68 23.68 0 1 0-47.36 0Z" fill="#FFF27D" p-id="3790"></path><path d="M275.84 421.12c-19.84 0-36.48-16-36.48-36.48s16-36.48 36.48-36.48 36.48 16 36.48 36.48-16.64 36.48-36.48 36.48z m0-47.36c-5.76 0-10.88 5.12-10.88 10.88s5.12 10.88 10.88 10.88 10.88-5.12 10.88-10.88-5.12-10.88-10.88-10.88z" fill="#708DB7" p-id="3791"></path><path d="M262.4 409.6h25.6v64h-25.6z" fill="#708DB7" p-id="3792"></path><path d="M275.84 499.84m-23.68 0a23.68 23.68 0 1 0 47.36 0 23.68 23.68 0 1 0-47.36 0Z" fill="#FFF27D" p-id="3793"></path><path d="M275.84 536.32c-19.84 0-36.48-16-36.48-36.48s16-36.48 36.48-36.48 36.48 16 36.48 36.48-16.64 36.48-36.48 36.48z m0-47.36c-5.76 0-10.88 5.12-10.88 10.88s5.12 10.88 10.88 10.88 10.88-5.12 10.88-10.88-5.12-10.88-10.88-10.88z" fill="#708DB7" p-id="3794"></path><path d="M640 377.6h89.6v25.6h-89.6z" fill="#708DB7" p-id="3795"></path><path d="M748.8 391.04m-27.52 0a27.52 27.52 0 1 0 55.04 0 27.52 27.52 0 1 0-55.04 0Z" fill="#FFFFFF" p-id="3796"></path><path d="M748.8 431.36c-22.4 0-40.32-17.92-40.32-40.32s17.92-40.32 40.32-40.32 40.32 17.92 40.32 40.32-17.92 40.32-40.32 40.32z m0-54.4c-8.32 0-14.72 6.4-14.72 14.72 0 8.32 6.4 14.72 14.72 14.72s14.72-6.4 14.72-14.72c0-8.32-6.4-14.72-14.72-14.72z" fill="#708DB7" p-id="3797"></path></svg>