<?xml version="1.0" standalone="no"?><!DOCTYPE svg PUBLIC "-//W3C//DTD SVG 1.1//EN" "http://www.w3.org/Graphics/SVG/1.1/DTD/svg11.dtd"><svg t="1662516534085" class="icon" viewBox="0 0 1024 1024" version="1.1" xmlns="http://www.w3.org/2000/svg" p-id="5093" xmlns:xlink="http://www.w3.org/1999/xlink" width="200" height="200"><path d="M962 294.9v393.8c0 10.4-8.4 18.8-18.8 18.8H80.8c-10.4 0-18.8-8.4-18.8-18.8V294.9c0-10.3 8.4-18.8 18.8-18.8h862.5c10.3 0 18.7 8.4 18.7 18.8z m-64.7 196.9c0-82.9-67.2-150-150-150s-150 67.1-150 150c0 82.8 67.2 150 150 150s150-67.2 150-150zM605.8 348.3c0-15.8-12.8-28.7-28.7-28.7H446.9c-7.9 0-15.1 3.2-20.3 8.4-5.2 5.2-8.4 12.4-8.4 20.3 0 15.8 12.8 28.7 28.7 28.7h130.2c7.9 0 15.1-3.2 20.3-8.4s8.4-12.4 8.4-20.3zM426.7 491.8c0-82.9-67.2-150-150-150s-150 67.1-150 150c0 82.8 67.2 150 150 150s150-67.2 150-150z" fill="#68C1EB" p-id="5094"></path><path d="M624.2 348.3c0-26-21.1-47.1-47.1-47.1H446.9c-12.6 0-24.4 4.9-33.3 13.8-8.9 8.9-13.8 20.7-13.8 33.3 0 26 21.1 47.1 47.1 47.1h130.2c12.6 0 24.4-4.9 33.3-13.8 8.9-8.9 13.8-20.7 13.8-33.3z m-39.9 7.2c-1.9 1.9-4.5 3-7.2 3H446.9c-5.6 0-10.2-4.6-10.2-10.2 0-2.7 1.1-5.3 3-7.2 1.9-1.9 4.5-3 7.2-3h130.2c5.6 0 10.2 4.6 10.2 10.2 0 2.7-1.1 5.3-3 7.2z" fill="#6A3906" p-id="5095"></path><path d="M943.3 257.7H80.8c-20.5 0-37.2 16.7-37.2 37.2v393.8c0 20.5 16.7 37.2 37.2 37.2h325.9v73c0 10.2 8.3 18.5 18.5 18.5s18.5-8.3 18.5-18.5v-73h21v73c0 10.2 8.3 18.5 18.5 18.5s18.5-8.3 18.5-18.5v-73h21v73c0 10.2 8.3 18.5 18.5 18.5s18.5-8.3 18.5-18.5v-73h21v73c0 10.2 8.3 18.5 18.5 18.5s18.5-8.3 18.5-18.5v-73h325.9c20.5 0 37.2-16.7 37.2-37.2V294.9c-0.3-20.5-17-37.2-37.5-37.2z m0.2 430.9c0 0.2-0.1 0.3-0.3 0.3H80.8c-0.2 0-0.3-0.1-0.3-0.3V294.9c0-0.2 0.1-0.3 0.3-0.3h862.5c0.2 0 0.3 0.1 0.3 0.3v393.7z" fill="#6A3906" p-id="5096"></path><path d="M276.7 323.3c-92.9 0-168.5 75.6-168.5 168.5s75.6 168.5 168.5 168.5 168.5-75.6 168.5-168.5-75.6-168.5-168.5-168.5z m0 300c-72.5 0-131.5-59-131.5-131.5s59-131.5 131.5-131.5 131.5 59 131.5 131.5-59 131.5-131.5 131.5z" fill="#6A3906" p-id="5097"></path><path d="M353.6 491.8c0 42.4-34.5 76.9-76.9 76.9-42.4 0-76.9-34.5-76.9-76.9s34.5-76.9 76.9-76.9c10.2 0 18.5-8.3 18.5-18.5s-8.3-18.5-18.5-18.5c-62.8 0-113.8 51.1-113.8 113.8S214 605.5 276.7 605.5c62.8 0 113.9-51.1 113.9-113.8 0-10.2-8.3-18.5-18.5-18.5s-18.5 8.4-18.5 18.6zM747.3 377.9c-62.8 0-113.8 51.1-113.8 113.8s51.1 113.8 113.8 113.8c10.2 0 18.5-8.3 18.5-18.5s-8.3-18.5-18.5-18.5c-42.4 0-76.9-34.5-76.9-76.9s34.5-76.9 76.9-76.9c42.4 0 76.9 34.5 76.9 76.9 0 10.2 8.3 18.5 18.5 18.5s18.5-8.3 18.5-18.5c0-62.6-51.1-113.7-113.9-113.7z" fill="#6A3906" p-id="5098"></path><path d="M747.3 323.3c-92.9 0-168.5 75.6-168.5 168.5s75.6 168.5 168.5 168.5 168.5-75.6 168.5-168.5-75.6-168.5-168.5-168.5z m0 300c-72.5 0-131.5-59-131.5-131.5s59-131.5 131.5-131.5 131.5 59 131.5 131.5-59 131.5-131.5 131.5z" fill="#6A3906" p-id="5099"></path></svg>